1Gnomon-3.ufo
<glyph name="exclam" format="1">
  <advance width="291"/>
  <unicode hex="0021"/>
  <outline>
    <contour>
      <point x="195" y="369" type="line"/>
      <point x="165" y="649" type="line"/>
      <point x="325" y="649" type="line"/>
      <point x="295" y="369" type="line"/>
    </contour>
    <contour>
      <point x="245" y="121" type="line"/>
      <point x="140" y="226" type="line"/>
      <point x="245" y="332" type="line"/>
      <point x="351" y="226" type="line"/>
    </contour>
  </outline>
</glyph>
<glyph name="dollar" format="1">
  <advance width="449"/>
  <unicode hex="0024"/>
  <outline>
    <contour>
      <point x="379" y="299" type="curve" smooth="yes"/>
      <point x="379" y="359"/>
      <point x="146" y="362"/>
      <point x="146" y="512" type="curve" smooth="yes"/>
      <point x="146" y="591"/>
      <point x="202" y="642"/>
      <point x="280" y="658" type="curve"/>
      <point x="265" y="719" type="line"/>
      <point x="405" y="719" type="line"/>
      <point x="390" y="658" type="line"/>
      <point x="436" y="646"/>
      <point x="478" y="619"/>
      <point x="515" y="577" type="curve"/>
      <point x="475" y="467" type="line"/>
      <point x="435" y="505"/>
      <point x="387" y="544"/>
      <point x="339" y="544" type="curve" smooth="yes"/>
      <point x="311" y="544"/>
      <point x="301" y="530"/>
      <point x="301" y="512" type="curve" smooth="yes"/>
      <point x="301" y="452"/>
      <point x="524" y="445"/>
      <point x="524" y="301" type="curve" smooth="yes"/>
      <point x="524" y="196"/>
      <point x="459" y="151"/>
      <point x="376" y="138" type="curve"/>
      <point x="392" y="74" type="line"/>
      <point x="252" y="74" type="line"/>
      <point x="268" y="138" type="line"/>
      <point x="199" y="148"/>
      <point x="147" y="178"/>
      <point x="115" y="216" type="curve"/>
      <point x="155" y="331" type="line"/>
      <point x="195" y="293"/>
      <point x="264" y="259"/>
      <point x="312" y="259" type="curve" smooth="yes"/>
      <point x="350" y="259"/>
      <point x="379" y="268"/>
    </contour>
  </outline>
</glyph>
<glyph name="zero" format="1">
  <advance width="510"/>
  <unicode hex="0030"/>
  <outline>
    <contour>
      <point x="130" y="399" type="curve" smooth="yes"/>
      <point x="130" y="548"/>
      <point x="200" y="669"/>
      <point x="355" y="669" type="curve" smooth="yes"/>
      <point x="510" y="669"/>
      <point x="580" y="548"/>
      <point x="580" y="399" type="curve" smooth="yes"/>
      <point x="580" y="250"/>
      <point x="510" y="129"/>
      <point x="355" y="129" type="curve" smooth="yes"/>
      <point x="200" y="129"/>
      <point x="130" y="250"/>
    </contour>
    <contour>
      <point x="275" y="399" type="curve" smooth="yes"/>
      <point x="275" y="306"/>
      <point x="303" y="254"/>
      <point x="355" y="254" type="curve" smooth="yes"/>
      <point x="407" y="254"/>
      <point x="435" y="306"/>
      <point x="435" y="399" type="curve" smooth="yes"/>
      <point x="435" y="492"/>
      <point x="407" y="544"/>
      <point x="355" y="544" type="curve" smooth="yes"/>
      <point x="303" y="544"/>
      <point x="275" y="492"/>
    </contour>
  </outline>
</glyph>
<glyph name="two" format="1">
  <advance width="458"/>
  <unicode hex="0032"/>
  <outline>
    <contour>
      <point x="523" y="492" type="curve" smooth="yes"/>
      <point x="523" y="396"/>
      <point x="410" y="333"/>
      <point x="326" y="271" type="curve"/>
      <point x="520" y="271" type="line"/>
      <point x="520" y="151" type="line"/>
      <point x="130" y="151" type="line"/>
      <point x="130" y="301"/>
      <point x="378" y="424"/>
      <point x="378" y="494" type="curve" smooth="yes"/>
      <point x="378" y="515"/>
      <point x="359" y="539"/>
      <point x="311" y="539" type="curve" smooth="yes"/>
      <point x="263" y="539"/>
      <point x="214" y="500"/>
      <point x="174" y="462" type="curve"/>
      <point x="134" y="577" type="line"/>
      <point x="174" y="624"/>
      <point x="234" y="659"/>
      <point x="331" y="659" type="curve" smooth="yes"/>
      <point x="408" y="659"/>
      <point x="523" y="619"/>
    </contour>
  </outline>
</glyph>
<glyph name="eight" format="1">
  <advance width="464"/>
  <unicode hex="0038"/>
  <outline>
    <contour>
      <point x="260" y="301" type="curve" smooth="yes"/>
      <point x="260" y="273"/>
      <point x="284" y="254"/>
      <point x="332" y="254" type="curve" smooth="yes"/>
      <point x="380" y="254"/>
      <point x="404" y="273"/>
      <point x="404" y="301" type="curve" smooth="yes"/>
      <point x="404" y="329"/>
      <point x="380" y="349"/>
      <point x="332" y="349" type="curve" smooth="yes"/>
      <point x="284" y="349"/>
      <point x="260" y="329"/>
    </contour>
    <contour>
      <point x="280" y="503" type="curve" smooth="yes"/>
      <point x="280" y="475"/>
      <point x="304" y="464"/>
      <point x="332" y="464" type="curve" smooth="yes"/>
      <point x="360" y="464"/>
      <point x="384" y="475"/>
      <point x="384" y="503" type="curve" smooth="yes"/>
      <point x="384" y="531"/>
      <point x="360" y="544"/>
      <point x="332" y="544" type="curve" smooth="yes"/>
      <point x="304" y="544"/>
      <point x="280" y="531"/>
    </contour>
    <contour>
      <point x="150" y="513" type="curve" smooth="yes"/>
      <point x="150" y="590"/>
      <point x="215" y="659"/>
      <point x="332" y="659" type="curve" smooth="yes"/>
      <point x="449" y="659"/>
      <point x="514" y="590"/>
      <point x="514" y="513" type="curve" smooth="yes"/>
      <point x="514" y="466"/>
      <point x="489" y="430"/>
      <point x="443" y="409" type="curve"/>
      <point x="499" y="390"/>
      <point x="534" y="353"/>
      <point x="534" y="291" type="curve" smooth="yes"/>
      <point x="534" y="184"/>
      <point x="449" y="139"/>
      <point x="332" y="139" type="curve" smooth="yes"/>
      <point x="215" y="139"/>
      <point x="130" y="194"/>
      <point x="130" y="291" type="curve" smooth="yes"/>
      <point x="130" y="354"/>
      <point x="166" y="392"/>
      <point x="224" y="410" type="curve"/>
      <point x="176" y="433"/>
      <point x="150" y="471"/>
    </contour>
  </outline>
</glyph>
<glyph name="question" format="1">
  <advance width="464"/>
  <unicode hex="003F"/>
  <outline>
    <contour>
      <point x="267" y="353" type="line"/>
      <point x="237" y="453" type="line"/>
      <point x="307" y="453" type="line" smooth="yes"/>
      <point x="355" y="453"/>
      <point x="364" y="478"/>
      <point x="364" y="506" type="curve" smooth="yes"/>
      <point x="364" y="529"/>
      <point x="350" y="544"/>
      <point x="322" y="544" type="curve" smooth="yes"/>
      <point x="274" y="544"/>
      <point x="226" y="505"/>
      <point x="186" y="467" type="curve"/>
      <point x="146" y="577" type="line"/>
      <point x="196" y="634"/>
      <point x="256" y="664"/>
      <point x="323" y="664" type="curve" smooth="yes"/>
      <point x="430" y="664"/>
      <point x="515" y="619"/>
      <point x="515" y="522" type="curve" smooth="yes"/>
      <point x="515" y="447"/>
      <point x="467" y="414"/>
      <point x="392" y="403" type="curve"/>
      <point x="377" y="353" type="line"/>
    </contour>
    <contour>
      <point x="325" y="121" type="line"/>
      <point x="220" y="226" type="line"/>
      <point x="325" y="332" type="line"/>
      <point x="431" y="226" type="line"/>
    </contour>
  </outline>
</glyph>
<glyph name="at" format="1">
  <advance width="700"/>
  <unicode hex="0040"/>
  <outline>
    <contour>
      <point x="780" y="369" type="curve" smooth="yes"/>
      <point x="780" y="239"/>
      <point x="733" y="137"/>
      <point x="606" y="137" type="curve" smooth="yes"/>
      <point x="559" y="137"/>
      <point x="514" y="148"/>
      <point x="499" y="194" type="curve"/>
      <point x="475" y="167"/>
      <point x="443" y="149"/>
      <point x="407" y="149" type="curve" smooth="yes"/>
      <point x="300" y="149"/>
      <point x="255" y="244"/>
      <point x="255" y="331" type="curve" smooth="yes"/>
      <point x="255" y="418"/>
      <point x="310" y="514"/>
      <point x="397" y="514" type="curve" smooth="yes"/>
      <point x="434" y="514"/>
      <point x="467" y="497"/>
      <point x="494" y="471" type="curve"/>
      <point x="494" y="504" type="line"/>
      <point x="629" y="504" type="line"/>
      <point x="629" y="259" type="line" smooth="yes"/>
      <point x="629" y="231"/>
      <point x="631" y="222"/>
      <point x="646" y="222" type="curve" smooth="yes"/>
      <point x="674" y="222"/>
      <point x="695" y="289"/>
      <point x="695" y="369" type="curve" smooth="yes"/>
      <point x="695" y="542"/>
      <point x="577" y="599"/>
      <point x="455" y="599" type="curve" smooth="yes"/>
      <point x="343" y="599"/>
      <point x="205" y="512"/>
      <point x="205" y="339" type="curve" smooth="yes"/>
      <point x="205" y="136"/>
      <point x="333" y="84"/>
      <point x="485" y="84" type="curve"/>
      <point x="485" y="19" type="line"/>
      <point x="260" y="19"/>
      <point x="120" y="120"/>
      <point x="120" y="339" type="curve" smooth="yes"/>
      <point x="120" y="528"/>
      <point x="270" y="669"/>
      <point x="455" y="669" type="curve" smooth="yes"/>
      <point x="650" y="669"/>
      <point x="780" y="538"/>
    </contour>
    <contour>
      <point x="494" y="278" type="curve"/>
      <point x="494" y="385" type="line"/>
      <point x="477" y="403"/>
      <point x="453" y="409"/>
      <point x="437" y="409" type="curve" smooth="yes"/>
      <point x="409" y="409"/>
      <point x="390" y="379"/>
      <point x="390" y="331" type="curve" smooth="yes"/>
      <point x="390" y="283"/>
      <point x="409" y="254"/>
      <point x="437" y="254" type="curve" smooth="yes"/>
      <point x="453" y="254"/>
      <point x="477" y="261"/>
    </contour>
  </outline>
</glyph>
<glyph name="E" format="1">
  <advance width="455"/>
  <unicode hex="0045"/>
  <outline>
    <contour>
      <point x="145" y="149" type="curve"/>
      <point x="145" y="649" type="line"/>
      <point x="272" y="649"/>
      <point x="398" y="649"/>
      <point x="525" y="649" type="curve"/>
      <point x="525" y="534" type="line"/>
      <point x="285" y="534" type="line"/>
      <point x="285" y="459" type="line"/>
      <point x="495" y="459" type="line"/>
      <point x="495" y="344" type="line"/>
      <point x="285" y="344" type="line"/>
      <point x="285" y="269" type="line"/>
      <point x="525" y="269" type="line"/>
      <point x="525" y="149" type="line"/>
      <point x="398" y="149"/>
      <point x="272" y="149"/>
    </contour>
  </outline>
</glyph>
<glyph name="L" format="1">
  <advance width="445"/>
  <unicode hex="004C"/>
  <outline>
    <contour>
      <point x="145" y="149" type="curve"/>
      <point x="145" y="649" type="line"/>
      <point x="285" y="649" type="line"/>
      <point x="285" y="269" type="line"/>
      <point x="525" y="269" type="line"/>
      <point x="525" y="149" type="line"/>
      <point x="398" y="149"/>
      <point x="272" y="149"/>
    </contour>
  </outline>
</glyph>
<glyph name="Q" format="1">
  <advance width="610"/>
  <unicode hex="0051"/>
  <outline>
    <contour>
      <point x="130" y="399" type="curve" smooth="yes"/>
      <point x="130" y="548"/>
      <point x="230" y="669"/>
      <point x="405" y="669" type="curve" smooth="yes"/>
      <point x="580" y="669"/>
      <point x="680" y="548"/>
      <point x="680" y="399" type="curve" smooth="yes"/>
      <point x="680" y="283"/>
      <point x="620" y="184"/>
      <point x="511" y="146" type="curve"/>
      <point x="665" y="-1" type="line"/>
      <point x="465" y="-1" type="line"/>
      <point x="351" y="133" type="line"/>
      <point x="210" y="155"/>
      <point x="130" y="266"/>
    </contour>
    <contour>
      <point x="275" y="399" type="curve" smooth="yes"/>
      <point x="275" y="306"/>
      <point x="343" y="254"/>
      <point x="405" y="254" type="curve" smooth="yes"/>
      <point x="467" y="254"/>
      <point x="535" y="306"/>
      <point x="535" y="399" type="curve" smooth="yes"/>
      <point x="535" y="492"/>
      <point x="467" y="544"/>
      <point x="405" y="544" type="curve" smooth="yes"/>
      <point x="343" y="544"/>
      <point x="275" y="492"/>
    </contour>
  </outline>
</glyph>
<glyph name="R" format="1">
  <advance width="515"/>
  <unicode hex="0052"/>
  <outline>
    <contour>
      <point x="145" y="149" type="line"/>
      <point x="145" y="649" type="line"/>
      <point x="218" y="649"/>
      <point x="292" y="649"/>
      <point x="365" y="649" type="curve" smooth="yes"/>
      <point x="482" y="649"/>
      <point x="567" y="604"/>
      <point x="567" y="477" type="curve" smooth="yes"/>
      <point x="567" y="398"/>
      <point x="520" y="357"/>
      <point x="448" y="342" type="curve"/>
      <point x="595" y="149" type="line"/>
      <point x="435" y="149" type="line"/>
      <point x="285" y="339" type="line"/>
      <point x="285" y="149" type="line"/>
    </contour>
    <contour>
      <point x="352" y="534" type="curve" smooth="yes"/>
      <point x="285" y="534" type="line"/>
      <point x="285" y="419" type="line"/>
      <point x="352" y="419" type="line" smooth="yes"/>
      <point x="390" y="419"/>
      <point x="422" y="429"/>
      <point x="422" y="477" type="curve" smooth="yes"/>
      <point x="422" y="525"/>
      <point x="390" y="534"/>
    </contour>
  </outline>
</glyph>
<glyph name="U" format="1">
  <advance width="554"/>
  <unicode hex="0055"/>
  <outline>
    <contour>
      <point x="285" y="371" type="line" smooth="yes"/>
      <point x="285" y="303"/>
      <point x="319" y="264"/>
      <point x="377" y="264" type="curve" smooth="yes"/>
      <point x="435" y="264"/>
      <point x="469" y="303"/>
      <point x="469" y="371" type="curve" smooth="yes"/>
      <point x="469" y="649" type="line"/>
      <point x="609" y="649" type="line"/>
      <point x="609" y="371" type="line" smooth="yes"/>
      <point x="609" y="224"/>
      <point x="534" y="139"/>
      <point x="377" y="139" type="curve" smooth="yes"/>
      <point x="220" y="139"/>
      <point x="145" y="234"/>
      <point x="145" y="371" type="curve" smooth="yes"/>
      <point x="145" y="649" type="line"/>
      <point x="285" y="649" type="line"/>
    </contour>
  </outline>
</glyph>
<glyph name="W" format="1">
  <advance width="880"/>
  <unicode hex="0057"/>
  <outline>
    <contour>
      <point x="960" y="649" type="line"/>
      <point x="770" y="149" type="line"/>
      <point x="610" y="149" type="line"/>
      <point x="542" y="344" type="line"/>
      <point x="470" y="149" type="line"/>
      <point x="310" y="149" type="line"/>
      <point x="120" y="649" type="line"/>
      <point x="270" y="649" type="line"/>
      <point x="394" y="284" type="line"/>
      <point x="481" y="502" type="line"/>
      <point x="420" y="649" type="line"/>
      <point x="580" y="649" type="line"/>
      <point x="692" y="301" type="line"/>
      <point x="810" y="649" type="line"/>
    </contour>
  </outline>
</glyph>
<glyph name="X" format="1">
  <advance width="620"/>
  <unicode hex="0058"/>
  <outline>
    <contour>
      <point x="700" y="149" type="line"/>
      <point x="530" y="149" type="line"/>
      <point x="410" y="303" type="line"/>
      <point x="290" y="149" type="line"/>
      <point x="120" y="149" type="line"/>
      <point x="325" y="412" type="line"/>
      <point x="140" y="649" type="line"/>
      <point x="310" y="649" type="line"/>
      <point x="410" y="521" type="line"/>
      <point x="510" y="649" type="line"/>
      <point x="680" y="649" type="line"/>
      <point x="495" y="412" type="line"/>
    </contour>
  </outline>
</glyph>
<glyph name="e" format="1">
  <advance width="469"/>
  <unicode hex="0065"/>
  <outline>
    <contour>
      <point x="140" y="341" type="curve" smooth="yes"/>
      <point x="140" y="468"/>
      <point x="225" y="544"/>
      <point x="342" y="544" type="curve" smooth="yes"/>
      <point x="459" y="544"/>
      <point x="534" y="468"/>
      <point x="534" y="361" type="curve"/>
      <point x="292" y="272" type="line"/>
      <point x="308" y="252"/>
      <point x="331" y="239"/>
      <point x="362" y="239" type="curve" smooth="yes"/>
      <point x="405" y="239"/>
      <point x="432" y="263"/>
      <point x="454" y="297" type="curve"/>
      <point x="514" y="204" type="line"/>
      <point x="478" y="160"/>
      <point x="420" y="139"/>
      <point x="352" y="139" type="curve" smooth="yes"/>
      <point x="235" y="139"/>
      <point x="140" y="214"/>
    </contour>
    <contour>
      <point x="418" y="415" type="line"/>
      <point x="403" y="435"/>
      <point x="379" y="448"/>
      <point x="345" y="448" type="curve" smooth="yes"/>
      <point x="290" y="448"/>
      <point x="268" y="402"/>
      <point x="265" y="357" type="curve"/>
    </contour>
  </outline>
</glyph>
<glyph name="f" format="1">
  <advance width="333"/>
  <unicode hex="0066"/>
  <outline>
    <contour>
      <point x="299" y="149" type="line"/>
      <point x="164" y="149" type="line"/>
      <point x="164" y="434" type="line"/>
      <point x="120" y="434" type="line"/>
      <point x="120" y="534" type="line"/>
      <point x="164" y="534" type="line"/>
      <point x="164" y="537" type="line" smooth="yes"/>
      <point x="164" y="634"/>
      <point x="249" y="689"/>
      <point x="326" y="689" type="curve" smooth="yes"/>
      <point x="393" y="689"/>
      <point x="423" y="674"/>
      <point x="473" y="627" type="curve"/>
      <point x="433" y="527" type="line"/>
      <point x="393" y="565"/>
      <point x="364" y="579"/>
      <point x="346" y="579" type="curve" smooth="yes"/>
      <point x="323" y="579"/>
      <point x="306" y="570"/>
      <point x="301" y="534" type="curve"/>
      <point x="385" y="534" type="line"/>
      <point x="385" y="434" type="line"/>
      <point x="299" y="434" type="line"/>
    </contour>
  </outline>
</glyph>
<glyph name="k" format="1">
  <advance width="485"/>
  <unicode hex="006B"/>
  <outline>
    <contour>
      <point x="140" y="149" type="line"/>
      <point x="140" y="679" type="line"/>
      <point x="275" y="679" type="line"/>
      <point x="275" y="399" type="line"/>
      <point x="410" y="534" type="line"/>
      <point x="575" y="534" type="line"/>
      <point x="415" y="374" type="line"/>
      <point x="585" y="149" type="line"/>
      <point x="420" y="149" type="line"/>
      <point x="275" y="341" type="line"/>
      <point x="275" y="149" type="line"/>
    </contour>
  </outline>
</glyph>
<glyph name="m" format="1">
  <advance width="693"/>
  <unicode hex="006D"/>
  <outline>
    <contour>
      <point x="140" y="149" type="line"/>
      <point x="140" y="534" type="line"/>
      <point x="275" y="534" type="line"/>
      <point x="275" y="468" type="line"/>
      <point x="305" y="515"/>
      <point x="349" y="544"/>
      <point x="392" y="544" type="curve" smooth="yes"/>
      <point x="452" y="544"/>
      <point x="487" y="517"/>
      <point x="503" y="469" type="curve"/>
      <point x="539" y="515"/>
      <point x="589" y="544"/>
      <point x="631" y="544" type="curve" smooth="yes"/>
      <point x="718" y="544"/>
      <point x="753" y="488"/>
      <point x="753" y="391" type="curve" smooth="yes"/>
      <point x="753" y="149" type="line"/>
      <point x="618" y="149" type="line"/>
      <point x="618" y="361" type="line" smooth="yes"/>
      <point x="618" y="419"/>
      <point x="609" y="439"/>
      <point x="581" y="439" type="curve" smooth="yes"/>
      <point x="554" y="439"/>
      <point x="530" y="420"/>
      <point x="514" y="395" type="curve"/>
      <point x="514" y="313"/>
      <point x="514" y="231"/>
      <point x="514" y="149" type="curve"/>
      <point x="379" y="149" type="line"/>
      <point x="379" y="361" type="line" smooth="yes"/>
      <point x="379" y="419"/>
      <point x="370" y="439"/>
      <point x="342" y="439" type="curve" smooth="yes"/>
      <point x="315" y="439"/>
      <point x="291" y="420"/>
      <point x="275" y="395" type="curve"/>
      <point x="275" y="149" type="line"/>
    </contour>
  </outline>
</glyph>
<glyph name="q" format="1">
  <advance width="499"/>
  <unicode hex="0071"/>
  <outline>
    <contour>
      <point x="564" y="534" type="line"/>
      <point x="564" y="4" type="line"/>
      <point x="429" y="4" type="line"/>
      <point x="429" y="188" type="line"/>
      <point x="398" y="157"/>
      <point x="357" y="139"/>
      <point x="312" y="139" type="curve" smooth="yes"/>
      <point x="205" y="139"/>
      <point x="140" y="225"/>
      <point x="140" y="342" type="curve" smooth="yes"/>
      <point x="140" y="459"/>
      <point x="205" y="544"/>
      <point x="312" y="544" type="curve" smooth="yes"/>
      <point x="357" y="544"/>
      <point x="398" y="524"/>
      <point x="429" y="492" type="curve"/>
      <point x="429" y="534" type="line"/>
    </contour>
    <contour>
      <point x="429" y="401" type="line"/>
      <point x="410" y="425"/>
      <point x="381" y="439"/>
      <point x="352" y="439" type="curve" smooth="yes"/>
      <point x="304" y="439"/>
      <point x="275" y="400"/>
      <point x="275" y="342" type="curve" smooth="yes"/>
      <point x="275" y="284"/>
      <point x="304" y="244"/>
      <point x="352" y="244" type="curve" smooth="yes"/>
      <point x="381" y="244"/>
      <point x="410" y="259"/>
      <point x="429" y="283" type="curve"/>
    </contour>
  </outline>
</glyph>
<glyph name="t" format="1">
  <advance width="325"/>
  <unicode hex="0074"/>
  <outline>
    <contour>
      <point x="120" y="434" type="line"/>
      <point x="120" y="534" type="line"/>
      <point x="190" y="534" type="line"/>
      <point x="190" y="599" type="line"/>
      <point x="325" y="659" type="line"/>
      <point x="325" y="534" type="line"/>
      <point x="405" y="534" type="line"/>
      <point x="405" y="434" type="line"/>
      <point x="325" y="434" type="line"/>
      <point x="325" y="149" type="line"/>
      <point x="190" y="149" type="line"/>
      <point x="190" y="434" type="line"/>
    </contour>
  </outline>
</glyph>
<glyph name="x" format="1">
  <advance width="465"/>
  <unicode hex="0078"/>
  <outline>
    <contour>
      <point x="332" y="447" type="line"/>
      <point x="400" y="534" type="line"/>
      <point x="555" y="534" type="line"/>
      <point x="410" y="348" type="line"/>
      <point x="565" y="149" type="line"/>
      <point x="410" y="149" type="line"/>
      <point x="332" y="248" type="line"/>
      <point x="255" y="149" type="line"/>
      <point x="100" y="149" type="line"/>
      <point x="255" y="348" type="line"/>
      <point x="110" y="534" type="line"/>
      <point x="265" y="534" type="line"/>
    </contour>
  </outline>
</glyph>
